<?xml version="1.0" standalone="no"?>
<!DOCTYPE svg PUBLIC "-//W3C//DTD SVG 20010904//EN"
 "http://www.w3.org/TR/2001/REC-SVG-20010904/DTD/svg10.dtd">
<svg version="1.0" xmlns="http://www.w3.org/2000/svg"
 width="700.000000pt" height="700.000000pt" viewBox="0 0 700.000000 700.000000"
 preserveAspectRatio="xMidYMid meet">
<metadata>
Created by potrace 1.14, written by Peter Selinger 2001-2017
</metadata>
<g transform="translate(0.000000,700.000000) scale(0.100000,-0.100000)"
fill="#000000" stroke="none">
<path d="M3319 6776 c-2 -2 -35 -7 -73 -11 -141 -14 -378 -69 -491 -114 -194
-78 -283 -123 -434 -216 -340 -211 -643 -561 -814 -941 -35 -77 -104 -265
-112 -302 -2 -9 -12 -53 -23 -97 -60 -240 -75 -565 -36 -815 2 -19 7 -48 9
-65 31 -218 174 -592 296 -773 16 -24 29 -47 29 -53 0 -5 4 -9 8 -9 5 0 14
-11 20 -24 6 -14 17 -33 26 -43 163 -202 261 -306 381 -402 39 -31 73 -60 76
-65 4 -5 7 -121 7 -257 -1 -223 -2 -249 -17 -254 -31 -10 -119 -106 -149 -163
-46 -88 -52 -138 -52 -430 0 -283 5 -326 50 -416 28 -55 107 -138 164 -170 52
-31 128 -55 189 -60 54 -4 56 -6 62 -32 45 -217 196 -458 380 -604 531 -422
1307 -272 1638 316 39 70 97 213 104 259 8 49 17 58 69 61 101 7 199 52 269
122 55 55 62 65 90 121 42 83 47 131 43 443 l-3 293 -37 76 c-36 74 -95 143
-150 176 l-26 16 0 249 0 249 81 68 c136 115 211 192 346 356 36 44 151 225
194 305 106 197 207 506 231 705 29 232 27 503 -5 670 -5 28 -12 64 -15 80 -9
55 -43 180 -70 260 -170 512 -524 942 -997 1212 -196 111 -483 217 -672 247
-16 2 -50 8 -75 11 -25 4 -54 9 -65 12 -25 6 -440 14 -446 9z m355 -440 c49
-4 92 -9 96 -11 3 -2 24 -6 48 -10 119 -17 320 -84 456 -152 95 -46 286 -170
346 -223 150 -133 243 -238 333 -373 145 -217 232 -444 282 -737 14 -77 13
-367 -1 -463 -71 -498 -317 -903 -735 -1209 -58 -43 -82 -68 -100 -105 -23
-47 -23 -54 -24 -345 0 -164 -2 -298 -5 -299 -20 -4 -1723 -3 -1733 1 -9 4
-12 77 -12 300 -1 289 -1 296 -24 343 -18 37 -42 62 -100 104 -197 145 -341
293 -464 480 -141 214 -243 492 -274 743 -10 84 -10 347 0 425 44 340 178 652
391 905 248 296 554 488 924 581 198 50 362 62 596 45z m917 -4373 c1 -10 1
-370 0 -406 l-1 -27 -1092 2 -1092 3 -1 200 c0 110 1 208 4 218 3 16 63 17
1092 17 599 0 1089 -3 1090 -7z m-484 -872 c17 -1 -21 -83 -74 -158 -165 -232
-465 -332 -733 -244 -172 57 -305 172 -389 336 -24 48 -27 61 -16 65 11 4
1167 5 1212 1z"/>
<path d="M4067 5012 c-24 -11 -173 -152 -412 -392 l-375 -375 -150 153 c-84
85 -169 161 -192 173 -59 30 -144 29 -195 -2 -99 -60 -138 -155 -106 -263 13
-44 40 -75 262 -297 263 -264 296 -289 383 -291 87 -1 106 15 600 510 438 438
467 470 481 518 35 118 -22 231 -136 273 -42 16 -117 13 -160 -7z"/>
</g>
</svg>
